<svg xmlns="http://www.w3.org/2000/svg" width="16" height="16" fill="currentColor" class="bi bi-chevron-double-up"><g fill-rule="evenodd"><path d="M7.777 6.328a.315.237 0 0 1 .446 0l3.78 2.84a.315.237 0 0 1-.445.335L8 6.83 4.442 9.503a.315.237 0 1 1-.446-.335Z" style="stroke-width:.546136" transform="translate(0 -.862)"/><path d="M7.777 8.221a.315.237 0 0 1 .446 0l3.78 2.84a.315.237 0 0 1-.445.336L8 8.724l-3.558 2.673a.315.237 0 0 1-.446-.336Z" style="stroke-width:.546136" transform="translate(0 -.862)"/></g></svg>