<svg xmlns="http://www.w3.org/2000/svg" width="16" height="16" fill="currentColor" class="bi bi-chevron-double-up"><defs><filter style="color-interpolation-filters:sRGB" id="a" x="-.002" width="1.004" y="-.003" height="1.006"><feGaussianBlur stdDeviation=".007"/></filter></defs><g fill-rule="evenodd" transform="matrix(1 0 0 1.41616 0 -3.472)" style="filter:url(#a)"><path d="M7.777 6.328a.392.392 0 0 1 .446 0l3.78 2.84c.274.223-.148.81-.445.585L7.939 7.082 4.442 9.753c-.297.245-.743-.361-.446-.585Z" style="stroke-width:.546136" transform="translate(0 -.862)"/><path d="M7.777 8.221a.392.392 0 0 1 .446 0l3.78 2.84c.298.223-.147.788-.445.548L8 8.889l-3.558 2.72c-.298.241-.744-.324-.446-.548Z" style="stroke-width:.546136" transform="translate(0 -.862)"/></g></svg>