<svg xmlns="http://www.w3.org/2000/svg" width="16" height="16" fill="currentColor" class="bi bi-list-columns-reverse"><path fill-rule="evenodd" d="M.5.9h5.77v.2H.5zm7.718 0H14.5v.2H8.218zM.5 2.9h5.77v.2H.5zm7.718 0H13.5v.2H8.218zM.5 4.9h5.77v.2H.5zm7.718 0H15.5v.2H8.218zM.5 6.9h5.77v.2H.5zm7.718 0H12.5v.2H8.218zM.5 8.9h5.77v.2H.5zm7.718 0H12.5v.2H8.218zM.5 10.9h5.77v.2H.5zm7.718 0H14.5v.2H8.218zM.5 12.9h5.77v.2H.5zm7.718 0H10.5v.2H8.218zM.5 14.9h5.77v.2H.5zm7.718 0H15.5v.2H8.218z" style="fill:#666;fill-opacity:1"/></svg>